<svg xmlns="http://www.w3.org/2000/svg" width="1024" height="400" viewBox="0 0 1024 400"><rect width="100%" height="100%" fill="#DDDDDD"/><path fill="#999999" d="M222.98 218.82h14.01q3.86 0 6.49-.92 2.62-.93 4.19-2.47 1.57-1.55 2.27-3.61t.7-4.38q0-2.42-.78-4.35-.77-1.93-2.42-3.29-1.65-1.37-4.25-2.09t-6.25-.72h-13.96zm11.79-52.94h-11.79v21.53H234q7.11 0 10.74-2.58 3.63-2.57 3.63-8.18 0-5.82-3.3-8.3-3.29-2.47-10.3-2.47m-25.64-10.71h25.64q7.32 0 12.52 1.39t8.52 3.97q3.32 2.57 4.87 6.23 1.54 3.65 1.54 8.24 0 2.62-.77 5.02-.77 2.39-2.39 4.48-1.63 2.09-4.12 3.79-2.5 1.69-5.95 2.88 15.34 3.45 15.34 16.58 0 4.74-1.8 8.76-1.8 4.01-5.25 6.92t-8.5 4.56-11.53 1.65h-28.12zm89.19 20.81q5.88 0 10.69 1.9 4.82 1.91 8.24 5.41 3.43 3.5 5.28 8.55t1.85 11.28q0 6.28-1.85 11.33-1.85 5.04-5.28 8.6-3.42 3.55-8.24 5.46-4.81 1.9-10.69 1.9-5.92 0-10.76-1.9-4.84-1.91-8.26-5.46-3.43-3.56-5.31-8.6-1.88-5.05-1.88-11.33 0-6.23 1.88-11.28t5.31-8.55q3.42-3.5 8.26-5.41 4.84-1.9 10.76-1.9m0 44.65q6.6 0 9.76-4.43 3.17-4.43 3.17-12.98t-3.17-13.03q-3.16-4.48-9.76-4.48-6.69 0-9.91 4.51-3.22 4.5-3.22 13t3.22 12.95q3.22 4.46 9.91 4.46m47.02-40.64.78 5.98q2.47-4.74 5.87-7.44 3.4-2.71 8.03-2.71 3.66 0 5.87 1.6l-.82 9.53q-.26.92-.75 1.31t-1.31.39q-.77 0-2.29-.26t-2.96-.26q-2.12 0-3.76.62-1.65.62-2.97 1.78-1.31 1.15-2.31 2.8-1.01 1.65-1.88 3.76v32.55h-12.72V176.8h7.46q1.96 0 2.73.7.78.69 1.03 2.49m60.36 33.99v-23.69q-2.16-2.62-4.71-3.7-2.55-1.09-5.49-1.09-2.88 0-5.2 1.09-2.31 1.08-3.96 3.27-1.65 2.18-2.53 5.56-.87 3.37-.87 7.95 0 4.64.75 7.86.74 3.22 2.13 5.25 1.39 2.04 3.4 2.94t4.48.9q3.97 0 6.75-1.65t5.25-4.69m0-60.87h12.72v76.53h-7.77q-2.53 0-3.2-2.32l-1.08-5.1q-3.19 3.66-7.34 5.93-4.14 2.26-9.65 2.26-4.33 0-7.93-1.8-3.61-1.8-6.21-5.23-2.6-3.42-4.02-8.47-1.41-5.05-1.41-11.54 0-5.87 1.59-10.91 1.6-5.05 4.59-8.76 2.98-3.71 7.15-5.79 4.18-2.09 9.38-2.09 4.43 0 7.57 1.39t5.61 3.76zm35.33 44.03h24q0-2.47-.7-4.66-.69-2.19-2.08-3.83-1.39-1.65-3.53-2.6-2.14-.96-4.97-.96-5.51 0-8.68 3.14-3.16 3.15-4.04 8.91m32.45 7.68h-32.71q.31 4.07 1.45 7.03 1.13 2.96 2.98 4.89 1.86 1.93 4.41 2.88 2.54.96 5.63.96t5.34-.73q2.24-.72 3.91-1.59 1.67-.88 2.93-1.6 1.27-.72 2.45-.72 1.6 0 2.37 1.19l3.66 4.63q-2.12 2.47-4.74 4.15-2.63 1.67-5.49 2.67-2.85 1.01-5.82 1.42-2.96.41-5.74.41-5.51 0-10.25-1.83-4.73-1.82-8.24-5.4-3.5-3.58-5.51-8.86t-2.01-12.23q0-5.41 1.76-10.17 1.75-4.77 5.02-8.3 3.27-3.52 7.98-5.58t10.63-2.06q5 0 9.22 1.59 4.23 1.6 7.26 4.66 3.04 3.07 4.77 7.52 1.72 4.46 1.72 10.17 0 2.89-.62 3.89-.61 1.01-2.36 1.01m23.74-24.83.77 5.98q2.47-4.74 5.87-7.44 3.4-2.71 8.03-2.71 3.66 0 5.88 1.6l-.83 9.53q-.26.92-.74 1.31-.49.39-1.32.39-.77 0-2.29-.26t-2.96-.26q-2.11 0-3.76.62t-2.96 1.78q-1.32 1.15-2.32 2.8t-1.88 3.76v32.55h-12.72V176.8h7.47q1.95 0 2.73.7.77.69 1.03 2.49m97.33-17.82-3.45 6.55q-.62 1.08-1.31 1.57-.7.49-1.73.49-1.08 0-2.34-.8t-3.01-1.78-4.1-1.78q-2.34-.79-5.53-.79-2.89 0-5.05.69-2.16.7-3.63 1.93-1.47 1.24-2.19 2.96-.72 1.73-.72 3.79 0 2.62 1.47 4.38 1.46 1.75 3.89 2.98 2.42 1.24 5.51 2.22t6.33 2.08q3.24 1.11 6.33 2.58t5.52 3.71q2.42 2.24 3.88 5.48 1.47 3.25 1.47 7.88 0 5.05-1.72 9.45-1.73 4.4-5.05 7.67t-8.11 5.15-10.97 1.88q-3.56 0-7.01-.69-3.45-.7-6.61-1.98-3.17-1.29-5.95-3.09-2.78-1.81-4.95-4.02l4.07-6.64q.52-.73 1.34-1.21.83-.49 1.75-.49 1.29 0 2.78 1.05 1.5 1.06 3.56 2.34 2.06 1.29 4.81 2.35 2.76 1.05 6.62 1.05 5.92 0 9.17-2.8 3.24-2.81 3.24-8.06 0-2.94-1.47-4.79-1.46-1.86-3.88-3.12t-5.51-2.14q-3.09-.87-6.29-1.9-3.19-1.03-6.28-2.47t-5.51-3.76-3.89-5.8q-1.47-3.47-1.47-8.57 0-4.07 1.63-7.93 1.62-3.86 4.71-6.85t7.62-4.79 10.4-1.8q6.59 0 12.16 2.06 5.56 2.06 9.47 5.76m29 68.29q-6.9 0-10.59-3.88-3.68-3.89-3.68-10.74v-29.51h-5.41q-1.03 0-1.75-.67t-.72-2.01v-5.05l8.5-1.39 2.68-14.42q.25-1.03.98-1.59.72-.57 1.85-.57H622v16.63h14.11v9.07H622v28.63q0 2.47 1.21 3.86 1.21 1.4 3.32 1.4 1.19 0 1.99-.29.79-.28 1.39-.59.59-.31 1.05-.59.47-.29.93-.29.57 0 .93.29.36.28.77.85l3.81 6.18q-2.78 2.31-6.39 3.5-3.6 1.18-7.46 1.18m58.5-53.66h10.2l-28.79 67.36q-.57 1.34-1.47 2.04-.9.69-2.75.69h-9.48l9.89-21.22-21.37-48.87h11.17q1.49 0 2.34.72t1.27 1.65l11.22 27.4q.57 1.39.96 2.78.38 1.39.74 2.83.47-1.44.93-2.86.46-1.41 1.03-2.8l10.61-27.35q.41-1.03 1.36-1.7.96-.67 2.14-.67m16.69-23.69h12.72v76.53h-12.72zm35.48 44.03h24q0-2.47-.7-4.66-.69-2.19-2.08-3.83-1.39-1.65-3.53-2.6-2.14-.96-4.97-.96-5.51 0-8.68 3.14-3.16 3.15-4.04 8.91m32.45 7.68h-32.71q.31 4.07 1.44 7.03 1.14 2.96 2.99 4.89 1.86 1.93 4.41 2.88 2.54.96 5.63.96t5.33-.73q2.24-.72 3.92-1.59 1.67-.88 2.93-1.6 1.27-.72 2.45-.72 1.6 0 2.37 1.19l3.66 4.63q-2.12 2.47-4.74 4.15-2.63 1.67-5.49 2.67-2.86 1.01-5.82 1.42t-5.74.41q-5.51 0-10.25-1.83-4.74-1.82-8.24-5.4t-5.51-8.86-2.01-12.23q0-5.41 1.75-10.17 1.76-4.77 5.03-8.3 3.27-3.52 7.98-5.58t10.63-2.06q5 0 9.22 1.59 4.22 1.6 7.26 4.66 3.04 3.07 4.77 7.52 1.72 4.46 1.72 10.17 0 2.89-.62 3.89-.61 1.01-2.36 1.01m47.63-22.3-2.88 4.58q-.52.82-1.08 1.16-.57.33-1.44.33-.93 0-1.99-.51-1.05-.52-2.44-1.16t-3.17-1.16q-1.78-.51-4.2-.51-3.76 0-5.89 1.59-2.14 1.6-2.14 4.17 0 1.7 1.11 2.86 1.1 1.16 2.93 2.04 1.83.87 4.15 1.57 2.31.69 4.71 1.52 2.39.82 4.71 1.88 2.32 1.05 4.15 2.68 1.82 1.62 2.93 3.88 1.11 2.27 1.11 5.46 0 3.81-1.37 7.03-1.36 3.22-4.04 5.56-2.68 2.35-6.62 3.66t-9.09 1.31q-2.73 0-5.33-.49-2.6-.48-4.99-1.36-2.4-.88-4.43-2.06t-3.58-2.58l2.94-4.84q.56-.87 1.33-1.34.78-.46 1.96-.46 1.19 0 2.24.67 1.06.67 2.45 1.44 1.39.78 3.27 1.44 1.88.67 4.76.67 2.27 0 3.89-.54t2.68-1.41q1.05-.88 1.54-2.04t.49-2.39q0-1.86-1.1-3.04-1.11-1.18-2.94-2.06t-4.17-1.57q-2.34-.7-4.79-1.52t-4.79-1.93-4.17-2.81-2.94-4.17q-1.1-2.47-1.1-5.97 0-3.25 1.28-6.18 1.29-2.94 3.79-5.13t6.23-3.5 8.63-1.31q5.45 0 9.94 1.8 4.48 1.8 7.46 4.74"/></svg>